<svg width="64" height="64" viewBox="0 0 64 64" fill="none" xmlns="http://www.w3.org/2000/svg">
<path d="M32 61.7473C48.5685 61.7473 62 48.3159 62 31.7473C62 15.1788 48.5685 1.74731 32 1.74731C15.4315 1.74731 2 15.1788 2 31.7473C2 48.3159 15.4315 61.7473 32 61.7473Z" stroke="#38040E" stroke-width="3" stroke-miterlimit="10"/>
<path d="M9.01733 12.4404L56.2079 49.4578" stroke="#38040E" stroke-width="3" stroke-miterlimit="10"/>
<path d="M57.1734 15.4478L11.1338 53.2819" stroke="#38040E" stroke-width="3" stroke-miterlimit="10"/>
<path d="M3.6709 41.6612L52.9036 10.2131" stroke="#38040E" stroke-width="3" stroke-miterlimit="10"/>
<path d="M60.3292 41.6609L2 31.7476" stroke="#38040E" stroke-width="3" stroke-miterlimit="10"/>
<path d="M2.92822 24.2476L58.6956 18.01" stroke="#38040E" stroke-width="3" stroke-miterlimit="10"/>
<path d="M42.3961 39.3222C42.7652 39.3222 43.0644 39.023 43.0644 38.6539C43.0644 38.2848 42.7652 37.9856 42.3961 37.9856C42.027 37.9856 41.7278 38.2848 41.7278 38.6539C41.7278 39.023 42.027 39.3222 42.3961 39.3222Z" fill="#38040E" stroke="#38040E" stroke-width="4" stroke-miterlimit="10"/>
<path d="M35.5272 33.8637C35.8963 33.8637 36.1955 33.5645 36.1955 33.1954C36.1955 32.8263 35.8963 32.5271 35.5272 32.5271C35.1581 32.5271 34.8589 32.8263 34.8589 33.1954C34.8589 33.5645 35.1581 33.8637 35.5272 33.8637Z" fill="#38040E" stroke="#38040E" stroke-width="4" stroke-miterlimit="10"/>
<path d="M27.1732 27.2922C27.5423 27.2922 27.8415 26.993 27.8415 26.6239C27.8415 26.2548 27.5423 25.9556 27.1732 25.9556C26.8041 25.9556 26.5049 26.2548 26.5049 26.6239C26.5049 26.993 26.8041 27.2922 27.1732 27.2922Z" fill="#38040E" stroke="#38040E" stroke-width="4" stroke-miterlimit="10"/>
<path d="M37.0497 21.0171C37.4188 21.0171 37.718 20.7178 37.718 20.3487C37.718 19.9796 37.4188 19.6804 37.0497 19.6804C36.6806 19.6804 36.3813 19.9796 36.3813 20.3487C36.3813 20.7178 36.6806 21.0171 37.0497 21.0171Z" fill="#38040E" stroke="#38040E" stroke-width="4" stroke-miterlimit="10"/>
<path d="M53.3119 19.3466C53.681 19.3466 53.9802 19.0474 53.9802 18.6783C53.9802 18.3092 53.681 18.01 53.3119 18.01C52.9428 18.01 52.6436 18.3092 52.6436 18.6783C52.6436 19.0474 52.9428 19.3466 53.3119 19.3466Z" fill="#38040E" stroke="#38040E" stroke-width="4" stroke-miterlimit="10"/>
<path d="M21.4554 22.688C21.8245 22.688 22.1237 22.3887 22.1237 22.0196C22.1237 21.6505 21.8245 21.3513 21.4554 21.3513C21.0863 21.3513 20.7871 21.6505 20.7871 22.0196C20.7871 22.3887 21.0863 22.688 21.4554 22.688Z" fill="#38040E" stroke="#38040E" stroke-width="4" stroke-miterlimit="10"/>
<path d="M31.1461 37.3908C31.5152 37.3908 31.8144 37.0916 31.8144 36.7225C31.8144 36.3534 31.5152 36.0542 31.1461 36.0542C30.777 36.0542 30.4778 36.3534 30.4778 36.7225C30.4778 37.0916 30.777 37.3908 31.1461 37.3908Z" fill="#38040E" stroke="#38040E" stroke-width="4" stroke-miterlimit="10"/>
<path d="M15.5892 34.7551C15.9583 34.7551 16.2575 34.4559 16.2575 34.0868C16.2575 33.7177 15.9583 33.4185 15.5892 33.4185C15.2201 33.4185 14.9209 33.7177 14.9209 34.0868C14.9209 34.4559 15.2201 34.7551 15.5892 34.7551Z" fill="#38040E" stroke="#38040E" stroke-width="4" stroke-miterlimit="10"/>
</svg>
